<svg xmlns="http://www.w3.org/2000/svg" width="65" height="65" viewBox="0 0 65 65">
  <metadata><?xpacket begin="﻿" id="W5M0MpCehiHzreSzNTczkc9d"?>
<x:xmpmeta xmlns:x="adobe:ns:meta/" x:xmptk="Adobe XMP Core 5.6-c138 79.159824, 2016/09/14-01:09:01        ">
   <rdf:RDF xmlns:rdf="http://www.w3.org/1999/02/22-rdf-syntax-ns#">
      <rdf:Description rdf:about=""/>
   </rdf:RDF>
</x:xmpmeta>
                                                                                                    
                                                                                                    
                                                                                                    
                                                                                                    
                                                                                                    
                                                                                                    
                                                                                                    
                                                                                                    
                                                                                                    
                                                                                                    
                                                                                                    
                                                                                                    
                                                                                                    
                                                                                                    
                                                                                                    
                                                                                                    
                                                                                                    
                                                                                                    
                                                                                                    
                                                                                                    
                           
<?xpacket end="w"?></metadata>
<defs>
    <style>
      .cls-1 {
        fill: #fff;
        fill-rule: evenodd;
      }
    </style>
  </defs>
  <path id="Forma_1" data-name="Forma 1" class="cls-1" d="M596.366,3662.89a1.257,1.257,0,0,0-.453-0.46l-14.072-8.15-0.071-.04-14-8.05a1.223,1.223,0,0,0-1.674.46,1.19,1.19,0,0,0-.163.61v32.49a1.245,1.245,0,0,0,1.227,1.23,1.285,1.285,0,0,0,.71-0.23l13.973-8.03,14.072-8.16A1.224,1.224,0,0,0,596.366,3662.89ZM576.5,3631a32.5,32.5,0,1,0,32.5,32.5A32.5,32.5,0,0,0,576.5,3631Zm0,58.96a26.465,26.465,0,1,1,26.463-26.46A26.464,26.464,0,0,1,576.5,3689.96Z" transform="translate(-544 -3631)"/>
</svg>
